<svg width="680" height="249" fill="none" xmlns="http://www.w3.org/2000/svg"><path fill="#fff" stroke="#E2E9ED" d="M.5.545h679v247H.5z"/><g clip-path="url(#a)"><path d="M258.307 118.787a20.018 20.018 0 0 0-7.975-2.042c-2.556 0-3.838.898-3.838 2.303 0 1.405 1.804 1.804 4.076 2.141l2.218.338c5.427.822 8.443 3.255 8.443 7.484 0 5.166-4.237 8.497-11.513 8.497-3.408 0-7.875-.645-11.122-2.94l2.656-5.112a14.657 14.657 0 0 0 8.543 2.449c3.124 0 4.605-.875 4.605-2.349 0-1.213-1.259-1.888-4.153-2.303l-2.041-.284c-5.788-.767-8.651-3.331-8.651-7.591 0-5.143 3.976-8.19 10.562-8.19a22.371 22.371 0 0 1 10.424 2.379l-2.234 5.22ZM284.436 119.171h-9.058v7.752c0 3.124 1.651 4.26 3.739 4.26a10.602 10.602 0 0 0 4.881-1.696l2.303 5.373a14.014 14.014 0 0 1-8.29 2.564c-6.202 0-9.38-3.508-9.38-9.979v-8.274h-5.664l2.533-5.987h3.131v-8.766h6.747v8.789h9.058v5.964ZM314.85 124.051c0 7.545-5.765 13.172-13.563 13.172-7.799 0-13.502-5.627-13.502-13.172 0-7.545 5.772-13.164 13.502-13.164 7.729 0 13.563 5.626 13.563 13.164Zm-20.195 0c0 4.06 2.84 6.908 6.632 6.908s6.662-2.84 6.662-6.908c0-4.068-2.863-6.908-6.662-6.908-3.8 0-6.632 2.855-6.632 6.908ZM349.764 147.264h-7.391l8.742-15.751-10.746-19.703h7.676l6.862 12.864 6.663-12.864h7.391l-19.197 35.454ZM338.404 112.339l-2.748 6.287a8.152 8.152 0 0 0-3.462-.768c-3.224 0-5.426 1.965-5.426 5.734v13.916h-6.909v-25.56h6.694v2.825c1.535-2.434 4.083-3.455 7.23-3.455 1.59.054 3.156.4 4.621 1.021Z" fill="#0E2A47"/><path d="M231.496 115.548H226a16.53 16.53 0 0 1 4.84-11.663 16.53 16.53 0 0 1 11.663-4.84v5.542a11.021 11.021 0 0 0-11.007 10.961ZM449.364 132.219h5.527a16.53 16.53 0 0 1-16.503 16.503v-5.526a10.88 10.88 0 0 0 10.976-10.746v-.231Z" fill="#1273EB"/><path d="M388.726 117.39a15.283 15.283 0 0 0-8.021-2.303c-3.485 0-5.788 1.474-5.788 3.838 0 2.042 1.781 3.07 4.99 3.439l2.893.361c5.197.675 8.229 2.824 8.229 6.831 0 4.652-4.191 7.576-10.746 7.576A17.175 17.175 0 0 1 370.066 134l1.774-2.893c1.865 1.45 4.344 2.663 8.489 2.663 4.145 0 6.747-1.374 6.747-3.953 0-1.973-1.658-3.155-5.12-3.569l-2.917-.338c-5.511-.675-8.098-3.132-8.098-6.778 0-4.605 3.907-7.422 9.779-7.422 3.432-.052 6.807.88 9.726 2.686l-1.72 2.994ZM418.078 124.375c.001.485-.025.969-.077 1.451h-19.627c.545 5.273 4.245 7.99 8.666 7.99a11.33 11.33 0 0 0 7.752-3.07l2.073 2.64a13.747 13.747 0 0 1-4.641 2.944c-1.729.66-3.573.964-5.422.894-7.238 0-12.381-5.143-12.381-12.719s5.166-12.749 12.151-12.749c6.647-.054 11.46 5.112 11.506 12.619Zm-19.65-1.681h15.72c-.492-4.606-3.493-7.522-7.676-7.522-4.506-.008-7.423 3.062-8.044 7.491v.031ZM439.332 116.454h-10.577v11.59c0 3.838 2.019 5.511 4.866 5.511a8.925 8.925 0 0 0 5.143-1.735l1.812 2.925a11.79 11.79 0 0 1-7.269 2.425c-5.274 0-8.444-2.893-8.444-9.049v-11.667h-5.373v-3.493h5.373v-7.775h3.838v7.775h10.577l.054 3.493Z" fill="#0E2A47"/></g><defs><clipPath id="a"><path fill="#fff" transform="translate(226 99.045)" d="M0 0h228.947v50H0z"/></clipPath></defs></svg>